<svg xmlns="http://www.w3.org/2000/svg" xmlns:xlink="http://www.w3.org/1999/xlink" width="14.557" height="14.495" viewBox="0 0 14.557 14.495">
  <defs>
    <clipPath id="clip-path">
      <rect id="Rectangle_141" data-name="Rectangle 141" width="14.557" height="14.495" transform="translate(0 0)" fill="#49331f"/>
    </clipPath>
  </defs>
  <g id="Group_143" data-name="Group 143" opacity="0.405" clip-path="url(#clip-path)">
    <path id="Path_139" data-name="Path 139" d="M0,3.256A2.2,2.2,0,0,1,.767,1.45c.372-.332.7-.709,1.072-1.046a1.114,1.114,0,0,1,1.7-.019q1.029.959,2,1.985a1.1,1.1,0,0,1-.05,1.7,5.54,5.54,0,0,1-.727.711c-.552.4-.554.813-.194,1.357a11.88,11.88,0,0,0,4.156,3.972.559.559,0,0,0,.82-.137A10.089,10.089,0,0,1,10.514,9a1.135,1.135,0,0,1,1.668-.022Q13.234,9.953,14.22,11a1.111,1.111,0,0,1-.024,1.616,18.244,18.244,0,0,1-1.359,1.351,2.714,2.714,0,0,1-2.619.358,13.474,13.474,0,0,1-6.155-3.66A14.064,14.064,0,0,1,.214,4.549,4.307,4.307,0,0,1,0,3.256" transform="translate(0 0)" fill="#49331f"/>
  </g>
</svg>
