<svg xmlns="http://www.w3.org/2000/svg" xmlns:xlink="http://www.w3.org/1999/xlink" width="16.962" height="17" viewBox="0 0 16.962 17">
  <defs>
    <clipPath id="clip-path">
      <rect id="Rectangle_132" data-name="Rectangle 132" width="16.962" height="17" fill="#49331f"/>
    </clipPath>
  </defs>
  <g id="Group_145" data-name="Group 145" opacity="0.405">
    <g id="Group_130" data-name="Group 130" clip-path="url(#clip-path)">
      <path id="Path_133" data-name="Path 133" d="M9.849,44.358c-1.074,0-2.148,0-3.221,0-.5,0-.922-.14-.924-.723s.394-.741.911-.732q.872.016,1.745,0c.177,0,.461.1.461-.221,0-.3.167-.682-.112-.881a.556.556,0,0,0-.739.077c-.262.393-.678.347-.819.117a1.012,1.012,0,0,1,.04-1.133c.191-.214.554-.2.776.175.143.243.458.135.686.1.3-.045.156-.319.179-.5.067-.508-.239-1.171.623-1.329.2-.037.132-.3.129-.476,0-.217-.166-.237-.33-.237-1.119,0-2.237,0-3.356,0-.266,0-.33.181-.406.367-.255.619-.522,1.234-.76,1.86A1.452,1.452,0,0,1,3.24,41.839c-.872,0-1.745-.005-2.618,0C.3,41.844,0,41.778,0,41.406c0-.4.346-.395.645-.394.828,0,1.656-.014,2.483,0A.8.8,0,0,0,4,40.435c.113-.315.254-.619.379-.93.182-.451.531-.913-.227-1.219-.215-.087-.271-.394-.273-.652-.013-1.811-.281-2.925,2.554-2.76.468.027.941-.023,1.409.011.508.037.455-.285.449-.6s.082-.649-.436-.62-1.029.015-1.543,0c-.734-.018-.681-.559-.687-1.059s.031-.977.7-.979c1.477,0,2.953,0,4.43,0a.6.6,0,0,1,.677.65c.008.246.008.492,0,.738a.591.591,0,0,1-.668.656c-.335,0-.674.028-1.006-.007-.485-.051-.653.1-.657.618,0,.545.208.617.67.608,1.364-.025,2.729-.014,4.094-.007a1.466,1.466,0,0,1,1.657,1.645c.036,2-.032,2.07-2.04,2.07-.761,0-1.521-.007-2.282.006-.174,0-.444-.107-.47.213-.019.231-.092.5.285.562.416.064.428.395.428.719,0,.783.012,1.566,0,2.349-.006.336.1.5.457.467.311-.025.626-.005.939,0,.835,0,1.2.229,1.192.74-.009.494-.381.711-1.227.712q-1.477,0-2.953,0" transform="translate(0 -27.359)" fill="#49331f"/>
      <path id="Path_134" data-name="Path 134" d="M91.584,7.624c-1.011-1.007-2.2-.689-3.306-.71-.545-.01-.7-.093-.481-.663.685-1.787,1.342-3.586,1.959-5.4A1.059,1.059,0,0,1,90.983.006c.444.035.892,0,1.338.014.291.01.568.119.508.471-.4,2.343-.815,4.684-1.245,7.133" transform="translate(-75.875 0)" fill="#49331f"/>
    </g>
  </g>
</svg>
