<svg xmlns="http://www.w3.org/2000/svg" xmlns:xlink="http://www.w3.org/1999/xlink" width="17" height="17" viewBox="0 0 17 17">
  <defs>
    <clipPath id="clip-path">
      <rect id="Rectangle_79" data-name="Rectangle 79" width="17" height="17" transform="translate(-0.046 0.353)" fill="#49331f"/>
    </clipPath>
  </defs>
  <g id="Group_142" data-name="Group 142" transform="translate(0.046 -0.353)" opacity="0.405">
    <g id="Group_112" data-name="Group 112" clip-path="url(#clip-path)">
      <path id="Path_109" data-name="Path 109" d="M7.639,0h1.6a1.477,1.477,0,0,0,.259.091,8.265,8.265,0,0,1,7.029,6.016c.162.5.236,1.021.351,1.532v1.6a1.5,1.5,0,0,0-.091.259,8.272,8.272,0,0,1-6.071,7.044c-.479.153-.984.226-1.477.336h-1.6a1.361,1.361,0,0,0-.259-.091A8.3,8.3,0,0,1,1.053,12.5,10.477,10.477,0,0,1,0,9.235v-1.6A1.5,1.5,0,0,0,.091,7.38,8.261,8.261,0,0,1,6.052.366C6.565.2,7.109.12,7.639,0m7.327,8.473a6.529,6.529,0,1,0-6.552,6.495,6.529,6.529,0,0,0,6.552-6.495" fill="#49331f"/>
      <path id="Path_110" data-name="Path 110" d="M60.718,39.856c0-.834.01-1.668,0-2.5-.006-.39.151-.529.541-.538,1.152-.026,1.152-.039,1.152,1.117,0,.91.014,1.82-.007,2.729-.008.366.1.5.48.49.966-.024,1.934.009,2.9-.015.451-.012.592.16.592.6,0,1.083.018,1.083-1.072,1.083-1.308,0-2.617-.032-3.923.015-.574.021-.7-.171-.671-.7.045-.755.012-1.516.012-2.274" transform="translate(-53.781 -32.613)" fill="#49331f"/>
    </g>
  </g>
</svg>
