<svg xmlns="http://www.w3.org/2000/svg" xmlns:xlink="http://www.w3.org/1999/xlink" width="16" height="16" viewBox="0 0 16 16">
  <defs>
    <clipPath id="clip-path">
      <rect id="Rectangle_142" data-name="Rectangle 142" width="16" height="16" transform="translate(-0.046 -0.221)" fill="#49331f"/>
    </clipPath>
  </defs>
  <g id="Group_144" data-name="Group 144" transform="translate(0.046 0.221)" opacity="0.405" clip-path="url(#clip-path)">
    <path id="Path_140" data-name="Path 140" d="M7.14,0H8.632a1.38,1.38,0,0,0,.242.085,7.725,7.725,0,0,1,6.569,5.623c.152.463.221.954.328,1.432V8.632a1.4,1.4,0,0,0-.085.242,7.731,7.731,0,0,1-5.674,6.584c-.448.143-.92.211-1.381.314H7.14a1.272,1.272,0,0,0-.242-.085A7.756,7.756,0,0,1,.985,11.679,9.792,9.792,0,0,1,0,8.632V7.14A1.4,1.4,0,0,0,.085,6.9,7.721,7.721,0,0,1,5.656.342C6.136.183,6.644.112,7.14,0m6.848,7.919a6.1,6.1,0,1,0-6.123,6.07,6.1,6.1,0,0,0,6.123-6.07" fill="#49331f"/>
    <path id="Path_141" data-name="Path 141" d="M67.5,35.63h-.985a.341.341,0,0,1-.341-.341v-6.55a.341.341,0,0,1,.341-.341H67.5a.341.341,0,0,1,.341.341v6.55a.341.341,0,0,1-.341.341" transform="translate(-59.125 -25.371)" fill="#49331f"/>
    <path id="Path_142" data-name="Path 142" d="M67.5,101.9h-.985a.341.341,0,0,1-.341-.341v-.985a.341.341,0,0,1,.341-.341H67.5a.341.341,0,0,1,.341.341v.985a.341.341,0,0,1-.341.341" transform="translate(-59.125 -89.55)" fill="#49331f"/>
  </g>
</svg>
