<svg xmlns="http://www.w3.org/2000/svg" xmlns:xlink="http://www.w3.org/1999/xlink" width="16.315" height="16.316" viewBox="0 0 16.315 16.316">
  <defs>
    <clipPath id="clip-path">
      <rect id="Rectangle_76" data-name="Rectangle 76" width="16.315" height="16.316" transform="translate(0 0)" fill="#49331f"/>
    </clipPath>
  </defs>
  <g id="Group_110" data-name="Group 110" transform="translate(0 0)">
    <g id="Group_109" data-name="Group 109" clip-path="url(#clip-path)">
      <path id="Path_98" data-name="Path 98" d="M4.012,0h8.276a1.186,1.186,0,0,0,.181.057,4.453,4.453,0,0,1,3.819,4.314q.052,3.771,0,7.543a4.444,4.444,0,0,1-4.375,4.375c-2.514.035-5.03.039-7.543,0a4.32,4.32,0,0,1-3.7-2.128A5.448,5.448,0,0,1,0,12.289V4.011A1.749,1.749,0,0,0,.061,3.8,4.469,4.469,0,0,1,2.117.689,5.485,5.485,0,0,1,4.012,0M8.151,14.848c1.167,0,2.334.005,3.5,0a3.045,3.045,0,0,0,3.195-3.2q.009-3.484,0-6.971a3.045,3.045,0,0,0-3.212-3.219q-3.484-.007-6.97,0a3.045,3.045,0,0,0-3.211,3.22q-.007,3.47,0,6.939a3.05,3.05,0,0,0,3.227,3.235c1.157,0,2.313,0,3.47,0" fill="#49331f"/>
      <path id="Path_99" data-name="Path 99" d="M12.351,8.136a4.2,4.2,0,1,1-4.2-4.186,4.216,4.216,0,0,1,4.2,4.186M8.136,10.9a2.745,2.745,0,1,0-2.73-2.767A2.749,2.749,0,0,0,8.136,10.9" fill="#49331f"/>
      <path id="Path_100" data-name="Path 100" d="M13.577,3.794A1.046,1.046,0,0,1,12.524,4.84a1.054,1.054,0,1,1,.02-2.108,1.042,1.042,0,0,1,1.033,1.062" fill="#49331f"/>
    </g>
  </g>
</svg>
