<svg id="Group_108" data-name="Group 108" xmlns="http://www.w3.org/2000/svg" xmlns:xlink="http://www.w3.org/1999/xlink" width="261.051" height="75.399" viewBox="0 0 261.051 75.399">
  <defs>
    <clipPath id="clip-path">
      <rect id="Rectangle_75" data-name="Rectangle 75" width="261.051" height="75.398" fill="none"/>
    </clipPath>
    <clipPath id="clip-path-3">
      <rect id="Rectangle_60" data-name="Rectangle 60" width="5.462" height="6.354" fill="none"/>
    </clipPath>
    <clipPath id="clip-path-4">
      <rect id="Rectangle_61" data-name="Rectangle 61" width="6.805" height="6.354" fill="none"/>
    </clipPath>
    <clipPath id="clip-path-5">
      <rect id="Rectangle_62" data-name="Rectangle 62" width="5.56" height="6.354" fill="none"/>
    </clipPath>
    <clipPath id="clip-path-7">
      <rect id="Rectangle_64" data-name="Rectangle 64" width="5.07" height="6.354" fill="none"/>
    </clipPath>
    <clipPath id="clip-path-8">
      <rect id="Rectangle_65" data-name="Rectangle 65" width="5.559" height="6.354" fill="none"/>
    </clipPath>
    <clipPath id="clip-path-9">
      <rect id="Rectangle_66" data-name="Rectangle 66" width="5.108" height="6.55" fill="none"/>
    </clipPath>
    <clipPath id="clip-path-10">
      <rect id="Rectangle_67" data-name="Rectangle 67" width="5.374" height="6.354" fill="none"/>
    </clipPath>
    <clipPath id="clip-path-11">
      <rect id="Rectangle_68" data-name="Rectangle 68" width="6.687" height="6.559" fill="none"/>
    </clipPath>
    <clipPath id="clip-path-12">
      <rect id="Rectangle_69" data-name="Rectangle 69" width="5.471" height="6.354" fill="none"/>
    </clipPath>
    <clipPath id="clip-path-13">
      <rect id="Rectangle_71" data-name="Rectangle 71" width="35.147" height="0.657" fill="none"/>
    </clipPath>
    <clipPath id="clip-path-14">
      <rect id="Rectangle_73" data-name="Rectangle 73" width="35.146" height="0.657" fill="none"/>
    </clipPath>
  </defs>
  <g id="Group_107" data-name="Group 107" clip-path="url(#clip-path)">
    <g id="Group_106" data-name="Group 106" transform="translate(0 0)">
      <g id="Group_105" data-name="Group 105" clip-path="url(#clip-path)">
        <path id="Path_64" data-name="Path 64" d="M10.949,667.861H7.228a.371.371,0,0,0-.332.332v2.014a.28.28,0,0,0,.107.214.334.334,0,0,0,.225.095H8.461v5.57a5.515,5.515,0,0,1-2.2-.439,5.678,5.678,0,0,1-3-3,5.951,5.951,0,0,1-.438-2.37,6.24,6.24,0,0,1,.438-2.453,5.507,5.507,0,0,1,1.209-1.789,5.956,5.956,0,0,1,1.789-1.209,5.4,5.4,0,0,1,2.2-.45,4.306,4.306,0,0,1,.557.035q.272.036.533.083.308.047.308-.261v-2.062a.382.382,0,0,0-.095-.237.368.368,0,0,0-.213-.142q-.261-.023-.545-.035t-.545-.012a8.239,8.239,0,0,0-3.295.664,8.643,8.643,0,0,0-2.69,1.8A8.377,8.377,0,0,0,0,670.279a8.233,8.233,0,0,0,.663,3.294,8.486,8.486,0,0,0,4.5,4.5,8.239,8.239,0,0,0,3.295.664h2.488c.221,0,.332-.1.332-.308V668.193a.336.336,0,0,0-.095-.225.3.3,0,0,0-.237-.107" transform="translate(0.001 -617.816)" fill="#49331f"/>
        <path id="Path_65" data-name="Path 65" d="M215.26,673.673h7.8a.3.3,0,0,0,.237-.107.336.336,0,0,0,.095-.225v-2.015q0-.308-.332-.308h-5.309v-5.807h3.911a.281.281,0,0,0,.213-.107.336.336,0,0,0,.095-.225v-2.015a.273.273,0,0,0-.308-.308h-3.911V659.4h5.309a.293.293,0,0,0,.332-.332v-2.015q0-.308-.332-.308h-7.8q-.333,0-.332.308v16.283a.334.334,0,0,0,.095.225.3.3,0,0,0,.237.107" transform="translate(-200.66 -613.151)" fill="#49331f"/>
        <path id="Path_66" data-name="Path 66" d="M377.709,674.007h2.181a.272.272,0,0,0,.308-.308V660.948l4.243,4.622v8.13a.272.272,0,0,0,.308.308h2.181q.332,0,.332-.308V657.416q0-.308-.332-.308h-2.181a.272.272,0,0,0-.308.308v4.29l-4.006-4.385a.852.852,0,0,0-.545-.213h-2.181q-.332,0-.332.308V673.7q0,.308.332.308" transform="translate(-352.324 -613.485)" fill="#49331f"/>
        <path id="Path_67" data-name="Path 67" d="M571.577,673.673h7.8a.3.3,0,0,0,.237-.107.335.335,0,0,0,.095-.225v-2.015q0-.308-.332-.308h-5.309v-5.807h3.911a.28.28,0,0,0,.213-.107.337.337,0,0,0,.095-.225v-2.015a.273.273,0,0,0-.308-.308h-3.911V659.4h5.309a.293.293,0,0,0,.332-.332v-2.015q0-.308-.332-.308h-7.8q-.332,0-.332.308v16.283a.335.335,0,0,0,.095.225.3.3,0,0,0,.237.107" transform="translate(-533.322 -613.151)" fill="#49331f"/>
        <path id="Path_68" data-name="Path 68" d="M744.123,665.617a5.056,5.056,0,0,0,.853-2.868,5.423,5.423,0,0,0-.45-2.193,5.923,5.923,0,0,0-1.209-1.8,5.573,5.573,0,0,0-3.982-1.647H734a.272.272,0,0,0-.308.308V673.7a.272.272,0,0,0,.308.308h2.181a.336.336,0,0,0,.225-.095.28.28,0,0,0,.107-.213V659.762h2.82a2.724,2.724,0,0,1,1.09.225,2.881,2.881,0,0,1,.9.6,2.913,2.913,0,0,1,.6.889,3.652,3.652,0,0,1,0,2.524,2.809,2.809,0,0,1-1.505,1.505,2.72,2.72,0,0,1-1.09.225h-.806q-.308,0-.19.284l3.579,7.7a.418.418,0,0,0,.189.2.524.524,0,0,0,.261.083h2.275q.331,0,.19-.284l-2.868-6.115a6.049,6.049,0,0,0,2.157-1.991" transform="translate(-684.987 -613.485)" fill="#49331f"/>
        <path id="Path_69" data-name="Path 69" d="M945.98,658.331a4.937,4.937,0,0,0-2.619-2.619,4.9,4.9,0,0,0-3.839,0,5.147,5.147,0,0,0-1.576,1.055,4.916,4.916,0,0,0-1.067,1.564,4.772,4.772,0,0,0-.391,1.919v11.757a.334.334,0,0,0,.094.225.3.3,0,0,0,.237.106H939a.281.281,0,0,0,.214-.106.338.338,0,0,0,.094-.225v-5.476h4.243v5.476a.334.334,0,0,0,.095.225.28.28,0,0,0,.214.106h2.181a.3.3,0,0,0,.237-.106.335.335,0,0,0,.1-.225V660.251a4.761,4.761,0,0,0-.391-1.919m-2.429,5.546h-4.243v-3.792a2.034,2.034,0,0,1,.616-1.494,2.064,2.064,0,0,1,1.517-.616,2.1,2.1,0,0,1,2.109,2.11Z" transform="translate(-874.318 -611.817)" fill="#49331f"/>
        <path id="Path_70" data-name="Path 70" d="M1109.835,673.566a.335.335,0,0,0,.095-.225V659.4h2.489a.293.293,0,0,0,.332-.332v-2.015q0-.308-.332-.308H1104.6a.272.272,0,0,0-.308.308v2.015q0,.332.308.332h2.512V673.34a.335.335,0,0,0,.095.225.28.28,0,0,0,.213.107h2.181a.3.3,0,0,0,.237-.107" transform="translate(-1030.98 -613.15)" fill="#49331f"/>
        <path id="Path_71" data-name="Path 71" d="M1263.874,657.107h-2.157c-.222,0-.332.1-.332.308V673.7c0,.206.11.308.332.308h2.157q.331,0,.332-.308V657.415q0-.308-.332-.308" transform="translate(-1177.647 -613.484)" fill="#49331f"/>
        <path id="Path_72" data-name="Path 72" d="M1555.844,657.107h-2.18a.272.272,0,0,0-.308.308v4.29l-4.006-4.385a.851.851,0,0,0-.545-.213h-2.181c-.222,0-.332.1-.332.308V673.7c0,.206.11.308.332.308h2.181a.272.272,0,0,0,.308-.308V660.947l4.243,4.622v8.13a.272.272,0,0,0,.308.308h2.18q.332,0,.332-.308V657.415q0-.308-.332-.308" transform="translate(-1443.64 -613.484)" fill="#49331f"/>
        <path id="Path_73" data-name="Path 73" d="M2257.35,667.861h-3.721a.371.371,0,0,0-.332.332v2.014a.281.281,0,0,0,.107.214.335.335,0,0,0,.225.095h1.233v5.57a5.514,5.514,0,0,1-2.2-.439,5.68,5.68,0,0,1-3-3,5.952,5.952,0,0,1-.438-2.37,6.241,6.241,0,0,1,.438-2.453,5.507,5.507,0,0,1,1.209-1.789,5.957,5.957,0,0,1,1.789-1.209,5.394,5.394,0,0,1,2.2-.45,4.3,4.3,0,0,1,.557.035q.272.036.533.083.308.047.308-.261v-2.062a.381.381,0,0,0-.095-.237.368.368,0,0,0-.213-.142q-.261-.023-.545-.035t-.545-.012a8.239,8.239,0,0,0-3.295.664,8.643,8.643,0,0,0-2.69,1.8,8.393,8.393,0,0,0-1.813,2.678,8.48,8.48,0,0,0-.664,3.389,8.236,8.236,0,0,0,.664,3.294,8.485,8.485,0,0,0,4.5,4.5,8.239,8.239,0,0,0,3.295.664h2.489c.221,0,.332-.1.332-.308V668.193a.336.336,0,0,0-.095-.225.3.3,0,0,0-.237-.107" transform="translate(-2097.271 -617.816)" fill="#49331f"/>
        <path id="Path_74" data-name="Path 74" d="M2469.46,656.75h-7.8q-.333,0-.332.308v16.283a.335.335,0,0,0,.095.225.3.3,0,0,0,.237.107h7.8a.3.3,0,0,0,.237-.107.335.335,0,0,0,.094-.225v-2.015q0-.308-.332-.308h-5.31v-5.807h3.911a.28.28,0,0,0,.213-.107.336.336,0,0,0,.095-.225v-2.015a.273.273,0,0,0-.308-.308h-3.911V659.4h5.31a.293.293,0,0,0,.332-.332v-2.015q0-.308-.332-.308" transform="translate(-2297.932 -613.151)" fill="#49331f"/>
        <path id="Path_75" data-name="Path 75" d="M2633.331,657.107h-2.18a.272.272,0,0,0-.308.308v4.29l-4.006-4.385a.851.851,0,0,0-.545-.213h-2.18q-.333,0-.332.308V673.7q0,.308.332.308h2.18a.272.272,0,0,0,.308-.308V660.947l4.243,4.622v8.13a.272.272,0,0,0,.308.308h2.18q.332,0,.332-.308V657.415q0-.308-.332-.308" transform="translate(-2449.597 -613.484)" fill="#49331f"/>
        <path id="Path_76" data-name="Path 76" d="M2815.111,656.75H2801.53a.272.272,0,0,0-.308.308v2.015q0,.332.308.332h5.392v13.937a.335.335,0,0,0,.095.225.28.28,0,0,0,.213.107h2.181a.3.3,0,0,0,.237-.107.335.335,0,0,0,.095-.225V659.4h5.369a.293.293,0,0,0,.332-.332v-2.015q0-.308-.332-.308" transform="translate(-2615.26 -613.151)" fill="#49331f"/>
        <path id="Path_77" data-name="Path 77" d="M3050.737,671.019h-3.911V657.082a.337.337,0,0,0-.095-.225.282.282,0,0,0-.213-.107h-2.18a.37.37,0,0,0-.332.332v16.283a.281.281,0,0,0,.107.213.335.335,0,0,0,.225.095h6.4q.332,0,.332-.308V671.35a.293.293,0,0,0-.332-.332" transform="translate(-2841.927 -613.151)" fill="#49331f"/>
        <path id="Path_78" data-name="Path 78" d="M3187.274,673.566a.336.336,0,0,0,.095-.225v-2.015q0-.308-.332-.308H3180v-5.807h5.641a.281.281,0,0,0,.214-.106.336.336,0,0,0,.095-.225v-2.015a.273.273,0,0,0-.309-.308H3180V659.4h7.04a.293.293,0,0,0,.332-.332v-2.015q0-.308-.332-.308h-9.528q-.332,0-.332.308V673.34a.335.335,0,0,0,.095.225.3.3,0,0,0,.237.107h9.528a.3.3,0,0,0,.237-.107" transform="translate(-2966.257 -613.15)" fill="#49331f"/>
        <path id="Path_79" data-name="Path 79" d="M3366.023,674.007h2.157a.3.3,0,0,0,.332-.308V661.611l2.631,3.745a.211.211,0,0,0,.379,0l2.631-3.745-.024,12.088q0,.308.356.308h2.157q.332,0,.332-.308V657.416q0-.308-.332-.308h-2.157a.829.829,0,0,0-.3.059.431.431,0,0,0-.225.178l-2.631,3.769-2.631-3.769a.591.591,0,0,0-.237-.178.736.736,0,0,0-.284-.059h-2.157q-.333,0-.332.308V673.7q0,.308.332.308" transform="translate(-3142.256 -613.485)" fill="#49331f"/>
        <path id="Path_80" data-name="Path 80" d="M3591.434,656.75h-10.479q-.333,0-.332.308v16.283a.335.335,0,0,0,.095.225.3.3,0,0,0,.237.107h10.479a.3.3,0,0,0,.237-.107.337.337,0,0,0,.094-.225v-2.015q0-.308-.332-.308h-7.99v-5.807h6.591a.281.281,0,0,0,.214-.107.337.337,0,0,0,.095-.225v-2.015a.273.273,0,0,0-.309-.308h-6.591V659.4h7.99a.293.293,0,0,0,.332-.332v-2.015q0-.308-.332-.308" transform="translate(-3342.92 -613.151)" fill="#49331f"/>
        <path id="Path_81" data-name="Path 81" d="M3793,657.107h-2.181a.272.272,0,0,0-.308.308v4.29l-4.006-4.385a.851.851,0,0,0-.545-.213h-2.18q-.333,0-.333.308V673.7q0,.308.333.308h2.18a.272.272,0,0,0,.308-.308V660.947l4.243,4.622v8.13a.272.272,0,0,0,.308.308H3793q.332,0,.332-.308V657.415q0-.308-.332-.308" transform="translate(-3532.276 -613.484)" fill="#49331f"/>
        <g id="Group_71" data-name="Group 71" transform="translate(63.308 68.937)" opacity="0.6">
          <g id="Group_70" data-name="Group 70">
            <g id="Group_69" data-name="Group 69" clip-path="url(#clip-path-3)">
              <path id="Path_82" data-name="Path 82" d="M958.743,1041.746a1.543,1.543,0,0,0-.908-.569,1.181,1.181,0,0,0,.471-.456,1.282,1.282,0,0,0,.2-.682,1.42,1.42,0,0,0-.529-1.2,2.188,2.188,0,0,0-1.373-.407h-2.961v6.354h3.05a2.772,2.772,0,0,0,1.756-.515,1.754,1.754,0,0,0,.656-1.466,1.654,1.654,0,0,0-.357-1.059m-3.967-2.334h1.716a.868.868,0,0,1,.613.2.688.688,0,0,1,.211.529.653.653,0,0,1-.205.51.819.819,0,0,1-.569.187h-1.765Zm2.79,4.143a1.613,1.613,0,0,1-.956.25h-1.834v-2h1.942a1.336,1.336,0,0,1,.878.265.926.926,0,0,1,.318.755.842.842,0,0,1-.348.731" transform="translate(-953.639 -1038.432)" fill="#634e39"/>
            </g>
          </g>
        </g>
        <g id="Group_74" data-name="Group 74" transform="translate(76.722 68.937)" opacity="0.6">
          <g id="Group_73" data-name="Group 73">
            <g id="Group_72" data-name="Group 72" clip-path="url(#clip-path-4)">
              <path id="Path_83" data-name="Path 83" d="M1159.645,1038.432h-1.078l-2.863,6.354h1.156l.5-1.1h3.505l.487,1.1h1.157Zm-1.878,4.354.729-1.609q.3-.636.613-1.52l.089.244q.089.235.256.61c.111.252.208.47.29.655l.719,1.619Z" transform="translate(-1155.704 -1038.432)" fill="#634e39"/>
            </g>
          </g>
        </g>
        <g id="Group_77" data-name="Group 77" transform="translate(91.743 68.937)" opacity="0.6">
          <g id="Group_76" data-name="Group 76">
            <g id="Group_75" data-name="Group 75" clip-path="url(#clip-path-5)">
              <path id="Path_84" data-name="Path 84" d="M1386.14,1042.932a2.137,2.137,0,0,0,.961-.853,2.331,2.331,0,0,0,.343-1.226,2.28,2.28,0,0,0-.725-1.741,2.925,2.925,0,0,0-2.078-.681h-2.667v6.354h1.137v-1.511h.916c.486,0,.823-.006,1.014-.019l1.1,1.529h1.393Zm-.3-1.049a1.548,1.548,0,0,1-1.128.411h-1.6v-2.883h1.608a1.533,1.533,0,0,1,1.118.412,1.469,1.469,0,0,1,0,2.059" transform="translate(-1381.972 -1038.432)" fill="#634e39"/>
            </g>
          </g>
        </g>
        <g id="Group_80" data-name="Group 80" transform="translate(105.834 68.937)" opacity="0.6">
          <g id="Group_79" data-name="Group 79">
            <g id="Group_78" data-name="Group 78" clip-path="url(#clip-path-3)">
              <path id="Path_85" data-name="Path 85" d="M1599.332,1041.746a1.543,1.543,0,0,0-.908-.569,1.182,1.182,0,0,0,.471-.456,1.283,1.283,0,0,0,.2-.682,1.42,1.42,0,0,0-.529-1.2,2.187,2.187,0,0,0-1.373-.407h-2.961v6.354h3.05a2.772,2.772,0,0,0,1.756-.515,1.754,1.754,0,0,0,.656-1.466,1.654,1.654,0,0,0-.357-1.059m-3.967-2.334h1.716a.868.868,0,0,1,.613.2.688.688,0,0,1,.211.529.653.653,0,0,1-.205.51.819.819,0,0,1-.569.187h-1.765Zm2.79,4.143a1.613,1.613,0,0,1-.956.25h-1.834v-2h1.942a1.335,1.335,0,0,1,.878.265.926.926,0,0,1,.318.755.843.843,0,0,1-.347.731" transform="translate(-1594.227 -1038.432)" fill="#634e39"/>
            </g>
          </g>
        </g>
        <g id="Group_83" data-name="Group 83" transform="translate(119.895 68.937)" opacity="0.6">
          <g id="Group_82" data-name="Group 82">
            <g id="Group_81" data-name="Group 81" clip-path="url(#clip-path-7)">
              <path id="Path_86" data-name="Path 86" d="M1807.169,1041.934h3.579v-.971h-3.579v-1.549h3.795v-.98h-4.932v6.354h5.069v-.981h-3.932Z" transform="translate(-1806.032 -1038.434)" fill="#634e39"/>
            </g>
          </g>
        </g>
        <g id="Group_86" data-name="Group 86" transform="translate(133.437 68.937)" opacity="0.6">
          <g id="Group_85" data-name="Group 85">
            <g id="Group_84" data-name="Group 84" clip-path="url(#clip-path-8)">
              <path id="Path_87" data-name="Path 87" d="M2014.185,1042.932a2.138,2.138,0,0,0,.961-.853,2.331,2.331,0,0,0,.342-1.226,2.282,2.282,0,0,0-.725-1.741,2.925,2.925,0,0,0-2.078-.681h-2.667v6.354h1.137v-1.511h.915q.729,0,1.014-.019l1.1,1.529h1.392Zm-.3-1.049a1.546,1.546,0,0,1-1.127.411h-1.6v-2.883h1.608a1.531,1.531,0,0,1,1.118.412,1.467,1.467,0,0,1,0,2.059" transform="translate(-2010.017 -1038.432)" fill="#634e39"/>
            </g>
          </g>
        </g>
        <g id="Group_89" data-name="Group 89" transform="translate(149.39 68.839)" opacity="0.6">
          <g id="Group_88" data-name="Group 88">
            <g id="Group_87" data-name="Group 87" clip-path="url(#clip-path-9)">
              <path id="Path_88" data-name="Path 88" d="M2254.687,1040.231a3.545,3.545,0,0,0-.744-.343l-.883-.285a4.338,4.338,0,0,1-1.014-.343.563.563,0,0,1-.319-.521.571.571,0,0,1,.206-.446,1.1,1.1,0,0,1,.451-.245,1.947,1.947,0,0,1,.49-.063,3.319,3.319,0,0,1,1.814.529l.441-.873a3.921,3.921,0,0,0-2.255-.686,2.759,2.759,0,0,0-1.627.475,1.523,1.523,0,0,0-.677,1.319,1.484,1.484,0,0,0,.142.656,1.537,1.537,0,0,0,.349.481,2.222,2.222,0,0,0,.549.348,4.037,4.037,0,0,0,.627.241l.7.2.647.182a1.152,1.152,0,0,1,.447.256.6.6,0,0,1,.216.465.739.739,0,0,1-.412.656,1.84,1.84,0,0,1-.961.245,3.259,3.259,0,0,1-2.108-.746l-.441.863a3.58,3.58,0,0,0,2.54.912,3.224,3.224,0,0,0,1.8-.5,1.61,1.61,0,0,0,.765-1.432,1.569,1.569,0,0,0-.192-.781,1.524,1.524,0,0,0-.555-.562" transform="translate(-2250.325 -1036.955)" fill="#634e39"/>
            </g>
          </g>
        </g>
        <g id="Group_92" data-name="Group 92" transform="translate(163.078 68.937)" opacity="0.6">
          <g id="Group_91" data-name="Group 91">
            <g id="Group_90" data-name="Group 90" clip-path="url(#clip-path-10)">
              <path id="Path_89" data-name="Path 89" d="M2460.746,1040.973h-3.1v-2.54h-1.137v6.354h1.137v-2.844h3.1v2.844h1.138v-6.354h-1.138Z" transform="translate(-2456.51 -1038.434)" fill="#634e39"/>
            </g>
          </g>
        </g>
        <g id="Group_95" data-name="Group 95" transform="translate(177.031 68.839)" opacity="0.6">
          <g id="Group_94" data-name="Group 94">
            <g id="Group_93" data-name="Group 93" clip-path="url(#clip-path-11)">
              <path id="Path_90" data-name="Path 90" d="M2672.433,1037.9a3.473,3.473,0,0,0-4.776,0,3.315,3.315,0,0,0,0,4.657,3.473,3.473,0,0,0,4.776,0,3.315,3.315,0,0,0,0-4.657m-.848,3.917a2.007,2.007,0,0,1-1.529.662,2.031,2.031,0,0,1-1.544-.662,2.34,2.34,0,0,1,0-3.181,2.039,2.039,0,0,1,1.544-.658,2.015,2.015,0,0,1,1.529.658,2.357,2.357,0,0,1,0,3.181" transform="translate(-2666.702 -1036.953)" fill="#634e39"/>
            </g>
          </g>
        </g>
        <g id="Group_98" data-name="Group 98" transform="translate(192.288 68.937)" opacity="0.6">
          <g id="Group_97" data-name="Group 97">
            <g id="Group_96" data-name="Group 96" clip-path="url(#clip-path-12)">
              <path id="Path_91" data-name="Path 91" d="M2901.255,1039.118a2.9,2.9,0,0,0-2.054-.686h-2.677v6.354h1.137v-1.511h1.53a2.922,2.922,0,0,0,2.063-.685,2.406,2.406,0,0,0,0-3.472m-.868,2.766a1.534,1.534,0,0,1-1.118.411h-1.608v-2.883h1.618a1.506,1.506,0,0,1,1.108.418,1.461,1.461,0,0,1,0,2.054" transform="translate(-2896.524 -1038.432)" fill="#634e39"/>
            </g>
          </g>
        </g>
        <path id="Path_92" data-name="Path 92" d="M1863.841,476.226a13.757,13.757,0,0,1,1.805.734,18.326,18.326,0,0,0-1.879-.7.007.007,0,0,1,0,0l.073-.028" transform="translate(-1740.039 -444.612)" fill="#49331f"/>
        <path id="Path_93" data-name="Path 93" d="M2133.372,476.248a18.362,18.362,0,0,0-1.881.7,13.78,13.78,0,0,1,1.806-.734l.074.029a.007.007,0,0,1,0,0" transform="translate(-1989.99 -444.601)" fill="#49331f"/>
        <path id="Path_94" data-name="Path 94" d="M1904.9,783.53l-7.6-3.337v8.828l7.6-3.338,7.6,3.338v-8.828ZM1899.268,786v-2.79l3.177,1.395Zm11.258,0-3.176-1.4,3.176-1.395Z" transform="translate(-1771.343 -728.399)" fill="#49331f"/>
        <path id="Path_95" data-name="Path 95" d="M1355.454,657.81h-1.389a4.407,4.407,0,0,0-4.4,4.4v8.073a4.406,4.406,0,0,0,4.4,4.4h1.389a4.407,4.407,0,0,0,4.4-4.4v-8.073a4.407,4.407,0,0,0-4.4-4.4m1.575,12.474a1.576,1.576,0,0,1-1.575,1.574h-1.389a1.576,1.576,0,0,1-1.575-1.574v-8.073a1.576,1.576,0,0,1,1.575-1.575h1.389a1.577,1.577,0,0,1,1.575,1.575Z" transform="translate(-1260.065 -614.141)" fill="#49331f"/>
        <g id="Group_101" data-name="Group 101" transform="translate(211.502 72.024)" opacity="0.6">
          <g id="Group_100" data-name="Group 100">
            <g id="Group_99" data-name="Group 99" clip-path="url(#clip-path-13)">
              <rect id="Rectangle_70" data-name="Rectangle 70" width="35.146" height="0.657" transform="translate(0 0)" fill="#634e39"/>
            </g>
          </g>
        </g>
        <g id="Group_104" data-name="Group 104" transform="translate(14.268 72.024)" opacity="0.6">
          <g id="Group_103" data-name="Group 103">
            <g id="Group_102" data-name="Group 102" clip-path="url(#clip-path-14)">
              <rect id="Rectangle_72" data-name="Rectangle 72" width="35.146" height="0.657" transform="translate(0 0)" fill="#634e39"/>
            </g>
          </g>
        </g>
        <path id="Path_96" data-name="Path 96" d="M1684.041,21.577v0m0,0v0m0,0v0m16.881,9.23V0h-1.971a14.926,14.926,0,0,1-14.909,14.909A14.927,14.927,0,0,1,1669.133,0h-1.971v30.8h-6.424l7.012,6.769h1.256a11.753,11.753,0,0,1,4.838,1.036,11.9,11.9,0,0,1,5.406,4.9,11.754,11.754,0,0,1,1.571,5.884v.985h6.443V49.39a11.753,11.753,0,0,1,1.571-5.884,11.9,11.9,0,0,1,5.407-4.9,11.753,11.753,0,0,1,4.838-1.036h1.256l7.012-6.769Zm-1.971-22.9V23.887a16.972,16.972,0,0,0-9.23-7.99,16.968,16.968,0,0,0,9.23-7.989m-12.856,9.12.007,0a14.93,14.93,0,0,1,12.811,13.737h-.206l-.139,0-.117,0-.121,0q-.352.015-.7.045l-.164.015-.142.015-.111.012c-.224.025-.447.055-.666.089l-.16.025-.162.028c-.108.019-.216.038-.322.059l-.138.027-.12.025-.138.03-.08.018-.065.015-.15.034q-.435.1-.846.223l-.138.041-.188.058-.177.056-.068.022.074.029.005,0h0a18.364,18.364,0,0,0-1.881.7c-.077.034-.156.069-.232.1l-.161.074-.11.051-.136.066c-.085.041-.17.083-.255.126s-.182.092-.272.139l-.065.034c-.068.035-.135.071-.2.108-.028.015-.057.03-.084.046-.055.029-.109.059-.163.091q-.295.165-.583.342l-.146.091c-.036.021-.071.043-.106.066l-.171.11q-.166.108-.33.22l-.072.05-.136.094-.093.066-.13.092c-.138.1-.275.2-.409.3l-.12.092q-.213.166-.422.339l-.1.082q-.205.172-.406.35l-.133.119q-.285.257-.558.525l-.1.1c-.146.146-.29.293-.429.444-.07.074-.139.148-.206.223s-.121.133-.18.2-.13.148-.193.223l-.1.112q-.165.2-.324.4l-.1.123c-.027.033-.054.068-.079.1s-.058.075-.087.113q-.113.147-.221.3c-.034.045-.067.092-.1.138l-.088.124c-.052.073-.1.147-.153.22-.051-.074-.1-.147-.153-.22-.029-.041-.058-.083-.088-.124s-.065-.092-.1-.138-.073-.1-.111-.15q-.112-.151-.228-.3l-.04-.052-.1-.133q-.153-.193-.313-.382c-.049-.059-.1-.118-.15-.176l-.151-.173c-.114-.129-.23-.257-.348-.383l-.11-.116c-.055-.059-.112-.118-.169-.176-.073-.075-.146-.149-.22-.222-.05-.05-.1-.1-.15-.147l-.12-.115c-.08-.077-.162-.153-.244-.229-.066-.062-.133-.122-.2-.182l-.011-.01c-.06-.054-.12-.107-.181-.159-.04-.036-.081-.071-.123-.106-.058-.05-.117-.1-.176-.149l-.018-.015c-.081-.067-.162-.134-.244-.2s-.17-.135-.257-.2-.173-.132-.26-.2-.175-.13-.264-.194-.177-.126-.266-.188l-.172-.118c-.094-.064-.189-.127-.285-.189l-.007-.005-.2-.127c-.016-.011-.033-.022-.05-.031-.048-.031-.1-.061-.145-.091-.081-.05-.162-.1-.244-.147s-.188-.111-.283-.165-.191-.108-.286-.16-.165-.09-.249-.133c-.116-.062-.232-.121-.35-.181l-.28-.137-.262-.123c-.112-.052-.225-.1-.338-.152a18.327,18.327,0,0,0-1.879-.7h0l.005,0,.073-.028-.067-.022c-.071-.024-.143-.046-.215-.069l-.217-.066-.2-.057-.045-.013-.206-.057-.223-.058-.263-.065c-.147-.035-.3-.068-.448-.1q-.384-.08-.782-.144l-.2-.031c-.05-.008-.1-.015-.15-.022-.135-.019-.271-.036-.407-.051l-.122-.013-.129-.013-.159-.014q-.35-.031-.7-.045l-.125,0-.116,0-.139,0h-.2a14.93,14.93,0,0,1,12.808-13.737h.005a9.721,9.721,0,0,1,4.109,0m-16.963-9.12a16.971,16.971,0,0,0,9.23,7.989,16.975,16.975,0,0,0-9.23,7.99Zm12.515,36a13.883,13.883,0,0,0-6.533-6.871,13.682,13.682,0,0,0-6.11-1.432h-.461l-2.926-2.825h3.06a16.577,16.577,0,0,1,3.618.4,16.251,16.251,0,0,1,1.9.545,16.534,16.534,0,0,1,2.86,1.33,16.726,16.726,0,0,1,5.756,5.62c.035.055.069.111.1.167q-.419.8-.762,1.651-.28.694-.5,1.417m1.173,4.5a16.517,16.517,0,0,1,.7-3.887q.227-.737.519-1.443.292.706.518,1.443a16.522,16.522,0,0,1,.7,3.887Zm16.719-12.8h-.46a13.691,13.691,0,0,0-6.111,1.434,13.9,13.9,0,0,0-6.528,6.882q-.224-.729-.509-1.43-.342-.846-.761-1.651l.1-.168a16.739,16.739,0,0,1,5.756-5.619,16.53,16.53,0,0,1,2.86-1.33,16.3,16.3,0,0,1,1.9-.545,16.608,16.608,0,0,1,3.618-.4h3.061Zm-15.5-14.026v0m0,0v0m0,0v0m0,0v0" transform="translate(-1550.488 -0.002)" fill="#49331f"/>
        <path id="Path_97" data-name="Path 97" d="M1848.182,316.7a11.77,11.77,0,0,1,11.634,10.085,17.12,17.12,0,0,0-1.814.482,9.891,9.891,0,0,0-19.64,0,16.9,16.9,0,0,0-1.814-.482,11.769,11.769,0,0,1,11.632-10.086v.554" transform="translate(-1714.628 -295.68)" fill="#49331f"/>
      </g>
    </g>
  </g>
</svg>
