<svg id="Group_67" data-name="Group 67" xmlns="http://www.w3.org/2000/svg" xmlns:xlink="http://www.w3.org/1999/xlink" width="157.161" height="24.655" viewBox="0 0 157.161 24.655">
  <defs>
    <clipPath id="clip-path">
      <rect id="Rectangle_59" data-name="Rectangle 59" width="157.161" height="24.655" fill="none"/>
    </clipPath>
    <clipPath id="clip-path-3">
      <rect id="Rectangle_48" data-name="Rectangle 48" width="3.246" height="3.776" fill="none"/>
    </clipPath>
    <clipPath id="clip-path-4">
      <rect id="Rectangle_49" data-name="Rectangle 49" width="4.044" height="3.776" fill="none"/>
    </clipPath>
    <clipPath id="clip-path-5">
      <rect id="Rectangle_50" data-name="Rectangle 50" width="3.304" height="3.776" fill="none"/>
    </clipPath>
    <clipPath id="clip-path-7">
      <rect id="Rectangle_52" data-name="Rectangle 52" width="3.013" height="3.776" fill="none"/>
    </clipPath>
    <clipPath id="clip-path-9">
      <rect id="Rectangle_54" data-name="Rectangle 54" width="3.037" height="3.893" fill="none"/>
    </clipPath>
    <clipPath id="clip-path-10">
      <rect id="Rectangle_55" data-name="Rectangle 55" width="3.194" height="3.776" fill="none"/>
    </clipPath>
    <clipPath id="clip-path-11">
      <rect id="Rectangle_56" data-name="Rectangle 56" width="3.974" height="3.899" fill="none"/>
    </clipPath>
    <clipPath id="clip-path-12">
      <rect id="Rectangle_57" data-name="Rectangle 57" width="3.252" height="3.776" fill="none"/>
    </clipPath>
  </defs>
  <g id="Group_66" data-name="Group 66" clip-path="url(#clip-path)">
    <g id="Group_65" data-name="Group 65">
      <g id="Group_64" data-name="Group 64" clip-path="url(#clip-path)">
        <path id="Path_30" data-name="Path 30" d="M517.946,189.166h-2.212a.22.22,0,0,0-.2.2v1.2a.166.166,0,0,0,.064.127.2.2,0,0,0,.134.056h.733v3.31a3.278,3.278,0,0,1-1.31-.261,3.375,3.375,0,0,1-1.782-1.782,3.537,3.537,0,0,1-.261-1.409,3.709,3.709,0,0,1,.261-1.458,3.273,3.273,0,0,1,.718-1.064,3.538,3.538,0,0,1,1.064-.718,3.206,3.206,0,0,1,1.31-.268,2.558,2.558,0,0,1,.331.021q.162.021.317.049.183.028.183-.155v-1.226a.227.227,0,0,0-.056-.141.219.219,0,0,0-.127-.085q-.155-.014-.324-.021t-.324-.007a4.9,4.9,0,0,0-1.958.394,5.138,5.138,0,0,0-1.6,1.071,4.98,4.98,0,0,0-1.472,3.606,4.893,4.893,0,0,0,.394,1.958,5.044,5.044,0,0,0,2.676,2.676,4.9,4.9,0,0,0,1.958.394h1.479c.131,0,.2-.061.2-.183v-6.086a.2.2,0,0,0-.056-.134.181.181,0,0,0-.141-.063" transform="translate(-491.259 -178.211)" fill="#49331f"/>
        <path id="Path_31" data-name="Path 31" d="M726.564,190.592H731.2a.181.181,0,0,0,.141-.063.2.2,0,0,0,.056-.134v-1.2q0-.183-.2-.183h-3.156v-3.451h2.324a.167.167,0,0,0,.127-.063.2.2,0,0,0,.056-.134v-1.2a.162.162,0,0,0-.183-.183h-2.324v-1.874H731.2a.174.174,0,0,0,.2-.2v-1.2q0-.183-.2-.183h-4.635q-.2,0-.2.183V190.4a.2.2,0,0,0,.056.134.18.18,0,0,0,.141.063" transform="translate(-697.707 -173.411)" fill="#49331f"/>
        <path id="Path_32" data-name="Path 32" d="M889.013,190.936h1.3a.162.162,0,0,0,.183-.183v-7.579l2.522,2.747v4.832a.162.162,0,0,0,.183.183h1.3q.2,0,.2-.183v-9.678q0-.183-.2-.183h-1.3a.162.162,0,0,0-.183.183v2.55l-2.381-2.606a.506.506,0,0,0-.324-.127h-1.3q-.2,0-.2.183v9.678q0,.183.2.183" transform="translate(-853.747 -173.755)" fill="#49331f"/>
        <path id="Path_33" data-name="Path 33" d="M1082.881,190.592h4.635a.181.181,0,0,0,.141-.063.2.2,0,0,0,.056-.134v-1.2q0-.183-.2-.183h-3.156v-3.451h2.324a.166.166,0,0,0,.127-.063.2.2,0,0,0,.057-.134v-1.2a.162.162,0,0,0-.183-.183h-2.324v-1.874h3.156a.174.174,0,0,0,.2-.2v-1.2q0-.183-.2-.183h-4.635q-.2,0-.2.183V190.4a.2.2,0,0,0,.056.134.18.18,0,0,0,.141.063" transform="translate(-1039.966 -173.411)" fill="#49331f"/>
        <path id="Path_34" data-name="Path 34" d="M1251.332,185.949a3.008,3.008,0,0,0,.507-1.7,3.224,3.224,0,0,0-.268-1.3,3.527,3.527,0,0,0-.719-1.071,3.311,3.311,0,0,0-2.367-.979h-3.169a.162.162,0,0,0-.183.183v9.678a.162.162,0,0,0,.183.183h1.3a.2.2,0,0,0,.134-.056.166.166,0,0,0,.063-.127V182.47h1.676a1.618,1.618,0,0,1,.648.134,1.711,1.711,0,0,1,.535.359,1.732,1.732,0,0,1,.359.528,2.17,2.17,0,0,1,0,1.5,1.671,1.671,0,0,1-.895.895,1.615,1.615,0,0,1-.648.134h-.479q-.183,0-.113.169l2.127,4.578a.248.248,0,0,0,.113.12.312.312,0,0,0,.155.049h1.352q.2,0,.113-.169l-1.7-3.635a3.6,3.6,0,0,0,1.282-1.183" transform="translate(-1196.005 -173.755)" fill="#49331f"/>
        <path id="Path_35" data-name="Path 35" d="M1453.568,180.9a2.936,2.936,0,0,0-1.557-1.556,2.914,2.914,0,0,0-2.282,0,3.059,3.059,0,0,0-.937.627,2.922,2.922,0,0,0-.634.93,2.835,2.835,0,0,0-.232,1.141v6.988a.2.2,0,0,0,.056.134.18.18,0,0,0,.141.063h1.3a.168.168,0,0,0,.127-.063.2.2,0,0,0,.056-.134v-3.255h2.521v3.255a.2.2,0,0,0,.056.134.166.166,0,0,0,.127.063h1.3a.179.179,0,0,0,.141-.063.2.2,0,0,0,.057-.134v-6.988a2.833,2.833,0,0,0-.233-1.141m-1.444,3.3H1449.6v-2.254a1.209,1.209,0,0,1,.366-.888,1.228,1.228,0,0,1,.9-.366,1.251,1.251,0,0,1,1.253,1.254Z" transform="translate(-1390.797 -172.039)" fill="#49331f"/>
        <path id="Path_36" data-name="Path 36" d="M1619.024,190.529a.2.2,0,0,0,.057-.134v-8.283h1.479a.174.174,0,0,0,.2-.2v-1.2c0-.122-.066-.183-.2-.183h-4.649a.162.162,0,0,0-.183.183v1.2q0,.2.183.2h1.493V190.4a.2.2,0,0,0,.056.134.166.166,0,0,0,.127.063h1.3a.18.18,0,0,0,.141-.063" transform="translate(-1551.978 -173.411)" fill="#49331f"/>
        <path id="Path_37" data-name="Path 37" d="M1774.3,180.892h-1.282c-.132,0-.2.061-.2.183v9.678c0,.122.065.183.2.183h1.282q.2,0,.2-.183v-9.678q0-.183-.2-.183" transform="translate(-1702.876 -173.755)" fill="#49331f"/>
        <path id="Path_38" data-name="Path 38" d="M2063.408,180.892h-1.3a.161.161,0,0,0-.183.183v2.55l-2.381-2.606a.5.5,0,0,0-.323-.127h-1.3q-.2,0-.2.183v9.678q0,.183.2.183h1.3a.162.162,0,0,0,.183-.183v-7.579l2.522,2.747v4.832a.161.161,0,0,0,.183.183h1.3c.131,0,.2-.061.2-.183v-9.678c0-.122-.066-.183-.2-.183" transform="translate(-1976.541 -173.755)" fill="#49331f"/>
        <path id="Path_39" data-name="Path 39" d="M2303.762,189.166h-2.211a.22.22,0,0,0-.2.2v1.2a.166.166,0,0,0,.063.127.2.2,0,0,0,.134.056h.732v3.31a3.275,3.275,0,0,1-1.31-.261,3.376,3.376,0,0,1-1.782-1.782,3.538,3.538,0,0,1-.26-1.409,3.71,3.71,0,0,1,.26-1.458,3.285,3.285,0,0,1,.719-1.064,3.538,3.538,0,0,1,1.063-.718,3.2,3.2,0,0,1,1.31-.268,2.559,2.559,0,0,1,.331.021q.161.021.317.049c.122.019.183-.033.183-.155v-1.226a.227.227,0,0,0-.056-.141.219.219,0,0,0-.127-.085c-.1-.009-.211-.016-.324-.021s-.221-.007-.324-.007a4.9,4.9,0,0,0-1.958.394,5.133,5.133,0,0,0-1.6,1.071,4.978,4.978,0,0,0-1.472,3.606,4.9,4.9,0,0,0,.394,1.958,5.045,5.045,0,0,0,2.677,2.676,4.9,4.9,0,0,0,1.958.394h1.479q.2,0,.2-.183v-6.086a.2.2,0,0,0-.056-.134.181.181,0,0,0-.141-.063" transform="translate(-2206.613 -178.211)" fill="#49331f"/>
        <path id="Path_40" data-name="Path 40" d="M2517.016,180.534h-4.634c-.132,0-.2.061-.2.183V190.4a.2.2,0,0,0,.057.134.18.18,0,0,0,.141.063h4.634a.181.181,0,0,0,.141-.063.2.2,0,0,0,.056-.134v-1.2q0-.183-.2-.183h-3.156v-3.451h2.324a.167.167,0,0,0,.127-.063.2.2,0,0,0,.056-.134v-1.2a.162.162,0,0,0-.183-.183h-2.324v-1.874h3.156a.174.174,0,0,0,.2-.2v-1.2q0-.183-.2-.183" transform="translate(-2413.063 -173.411)" fill="#49331f"/>
        <path id="Path_41" data-name="Path 41" d="M2680.31,180.892h-1.3a.162.162,0,0,0-.183.183v2.55l-2.38-2.606a.506.506,0,0,0-.324-.127h-1.3c-.132,0-.2.061-.2.183v9.678c0,.122.065.183.2.183h1.3a.162.162,0,0,0,.183-.183v-7.579l2.521,2.747v4.832a.162.162,0,0,0,.183.183h1.3q.2,0,.2-.183v-9.678q0-.183-.2-.183" transform="translate(-2569.102 -173.755)" fill="#49331f"/>
        <path id="Path_42" data-name="Path 42" d="M2860.332,180.534h-8.072a.162.162,0,0,0-.183.183v1.2q0,.2.183.2h3.2V190.4a.2.2,0,0,0,.056.134.166.166,0,0,0,.126.063h1.3a.18.18,0,0,0,.141-.063.2.2,0,0,0,.056-.134v-8.283h3.191a.174.174,0,0,0,.2-.2v-1.2c0-.122-.066-.183-.2-.183" transform="translate(-2739.545 -173.411)" fill="#49331f"/>
        <path id="Path_43" data-name="Path 43" d="M3098.86,189.014h-2.324v-8.283a.2.2,0,0,0-.056-.134.168.168,0,0,0-.127-.063h-1.3a.22.22,0,0,0-.2.2v9.678a.167.167,0,0,0,.063.127.2.2,0,0,0,.134.056h3.8c.132,0,.2-.061.2-.183v-1.2a.174.174,0,0,0-.2-.2" transform="translate(-2972.749 -173.411)" fill="#49331f"/>
        <path id="Path_44" data-name="Path 44" d="M3234.033,190.529a.2.2,0,0,0,.056-.134v-1.2q0-.183-.2-.183h-4.184v-3.451h3.353a.167.167,0,0,0,.127-.063.2.2,0,0,0,.057-.134v-1.2a.162.162,0,0,0-.183-.183h-3.353v-1.874h4.184a.174.174,0,0,0,.2-.2v-1.2q0-.183-.2-.183h-5.663q-.2,0-.2.183V190.4a.2.2,0,0,0,.056.134.181.181,0,0,0,.141.063h5.663a.182.182,0,0,0,.141-.063" transform="translate(-3100.666 -173.411)" fill="#49331f"/>
        <path id="Path_45" data-name="Path 45" d="M3416.741,190.936h1.282a.176.176,0,0,0,.2-.183v-7.184l1.563,2.226a.128.128,0,0,0,.113.07.126.126,0,0,0,.113-.07l1.564-2.226-.014,7.184q0,.183.212.183h1.282q.2,0,.2-.183v-9.678q0-.183-.2-.183h-1.282a.492.492,0,0,0-.176.035.257.257,0,0,0-.134.106l-1.564,2.24-1.564-2.24a.351.351,0,0,0-.141-.106.436.436,0,0,0-.169-.035h-1.282q-.2,0-.2.183v9.678q0,.183.2.183" transform="translate(-3281.74 -173.755)" fill="#49331f"/>
        <path id="Path_46" data-name="Path 46" d="M3637.9,180.534h-6.228q-.2,0-.2.183V190.4a.2.2,0,0,0,.057.134.18.18,0,0,0,.141.063h6.228a.18.18,0,0,0,.141-.063.2.2,0,0,0,.056-.134v-1.2c0-.122-.066-.183-.2-.183h-4.75v-3.451h3.918a.167.167,0,0,0,.127-.063.2.2,0,0,0,.056-.134v-1.2a.162.162,0,0,0-.183-.183h-3.918v-1.874h4.75a.174.174,0,0,0,.2-.2v-1.2c0-.122-.066-.183-.2-.183" transform="translate(-3488.193 -173.411)" fill="#49331f"/>
        <path id="Path_47" data-name="Path 47" d="M3839.975,180.892h-1.3a.162.162,0,0,0-.183.183v2.55l-2.381-2.606a.506.506,0,0,0-.324-.127h-1.3q-.2,0-.2.183v9.678q0,.183.2.183h1.3a.162.162,0,0,0,.183-.183v-7.579l2.521,2.747v4.832a.162.162,0,0,0,.183.183h1.3q.2,0,.2-.183v-9.678q0-.183-.2-.183" transform="translate(-3683.012 -173.755)" fill="#49331f"/>
        <g id="Group_36" data-name="Group 36" transform="translate(21.372 20.292)" opacity="0.6">
          <g id="Group_35" data-name="Group 35">
            <g id="Group_34" data-name="Group 34" clip-path="url(#clip-path-3)">
              <path id="Path_48" data-name="Path 48" d="M544.711,516.264a.917.917,0,0,0-.539-.338.7.7,0,0,0,.28-.271.761.761,0,0,0,.116-.405.844.844,0,0,0-.315-.713,1.3,1.3,0,0,0-.816-.242h-1.76v3.776h1.813a1.647,1.647,0,0,0,1.043-.306,1.042,1.042,0,0,0,.39-.871.984.984,0,0,0-.212-.629m-2.358-1.387h1.02a.515.515,0,0,1,.364.117.409.409,0,0,1,.125.315.388.388,0,0,1-.122.3.486.486,0,0,1-.338.111h-1.049Zm1.658,2.462a.958.958,0,0,1-.568.149h-1.09V516.3h1.154a.794.794,0,0,1,.522.157.55.55,0,0,1,.189.448.5.5,0,0,1-.207.434" transform="translate(-541.677 -514.294)" fill="#634e39"/>
            </g>
          </g>
        </g>
        <g id="Group_39" data-name="Group 39" transform="translate(29.345 20.292)" opacity="0.6">
          <g id="Group_38" data-name="Group 38">
            <g id="Group_37" data-name="Group 37" clip-path="url(#clip-path-4)">
              <path id="Path_49" data-name="Path 49" d="M746.084,514.295h-.641l-1.7,3.777h.687l.3-.653h2.083l.289.653h.688Zm-1.116,2.588.434-.956q.176-.378.364-.9l.053.145q.053.14.152.363l.173.389.427.962Z" transform="translate(-743.742 -514.295)" fill="#634e39"/>
            </g>
          </g>
        </g>
        <g id="Group_42" data-name="Group 42" transform="translate(38.273 20.292)" opacity="0.6">
          <g id="Group_41" data-name="Group 41">
            <g id="Group_40" data-name="Group 40" clip-path="url(#clip-path-5)">
              <path id="Path_50" data-name="Path 50" d="M972.487,516.969a1.27,1.27,0,0,0,.571-.507,1.386,1.386,0,0,0,.2-.728,1.355,1.355,0,0,0-.431-1.035,1.738,1.738,0,0,0-1.235-.4H970.01v3.776h.676v-.9h.544c.289,0,.489,0,.6-.011l.654.909h.828Zm-.18-.623a.921.921,0,0,1-.671.245h-.95v-1.714h.956a.912.912,0,0,1,.665.245.873.873,0,0,1,0,1.224" transform="translate(-970.01 -514.294)" fill="#634e39"/>
            </g>
          </g>
        </g>
        <g id="Group_45" data-name="Group 45" transform="translate(46.648 20.292)" opacity="0.6">
          <g id="Group_44" data-name="Group 44">
            <g id="Group_43" data-name="Group 43" clip-path="url(#clip-path-3)">
              <path id="Path_51" data-name="Path 51" d="M1185.3,516.264a.917.917,0,0,0-.54-.338.7.7,0,0,0,.28-.271.763.763,0,0,0,.116-.405.844.844,0,0,0-.315-.713,1.3,1.3,0,0,0-.816-.242h-1.76v3.776h1.813a1.647,1.647,0,0,0,1.043-.306,1.042,1.042,0,0,0,.39-.871.984.984,0,0,0-.212-.629m-2.358-1.387h1.02a.516.516,0,0,1,.365.117.409.409,0,0,1,.125.315.388.388,0,0,1-.122.3.487.487,0,0,1-.339.111h-1.049Zm1.658,2.462a.959.959,0,0,1-.569.149h-1.09V516.3h1.154a.794.794,0,0,1,.522.157.55.55,0,0,1,.189.448.5.5,0,0,1-.206.434" transform="translate(-1182.265 -514.294)" fill="#634e39"/>
            </g>
          </g>
        </g>
        <g id="Group_48" data-name="Group 48" transform="translate(55.005 20.292)" opacity="0.6">
          <g id="Group_47" data-name="Group 47">
            <g id="Group_46" data-name="Group 46" clip-path="url(#clip-path-7)">
              <path id="Path_52" data-name="Path 52" d="M1394.746,516.377h2.127V515.8h-2.127v-.921H1397V514.3h-2.931v3.776h3.013v-.583h-2.337Z" transform="translate(-1394.07 -514.296)" fill="#634e39"/>
            </g>
          </g>
        </g>
        <g id="Group_51" data-name="Group 51" transform="translate(63.053 20.292)" opacity="0.6">
          <g id="Group_50" data-name="Group 50">
            <g id="Group_49" data-name="Group 49" clip-path="url(#clip-path-5)">
              <path id="Path_53" data-name="Path 53" d="M1600.531,516.969a1.269,1.269,0,0,0,.571-.507,1.386,1.386,0,0,0,.2-.728,1.357,1.357,0,0,0-.431-1.035,1.74,1.74,0,0,0-1.236-.4h-1.585v3.776h.676v-.9h.544q.433,0,.6-.011l.654.909h.828Zm-.181-.623a.919.919,0,0,1-.67.245h-.95v-1.714h.956a.911.911,0,0,1,.664.245.872.872,0,0,1,0,1.224" transform="translate(-1598.054 -514.294)" fill="#634e39"/>
            </g>
          </g>
        </g>
        <g id="Group_54" data-name="Group 54" transform="translate(72.534 20.234)" opacity="0.6">
          <g id="Group_53" data-name="Group 53">
            <g id="Group_52" data-name="Group 52" clip-path="url(#clip-path-9)">
              <path id="Path_54" data-name="Path 54" d="M1840.956,514.765a2.1,2.1,0,0,0-.442-.2l-.525-.169a2.579,2.579,0,0,1-.6-.2.335.335,0,0,1-.189-.309.339.339,0,0,1,.122-.265.655.655,0,0,1,.268-.146,1.153,1.153,0,0,1,.291-.038,1.974,1.974,0,0,1,1.078.315l.262-.519a2.331,2.331,0,0,0-1.34-.408,1.639,1.639,0,0,0-.967.283.9.9,0,0,0-.4.784.881.881,0,0,0,.084.39.914.914,0,0,0,.207.286,1.324,1.324,0,0,0,.326.207,2.4,2.4,0,0,0,.373.143l.416.116.385.108a.684.684,0,0,1,.266.152.356.356,0,0,1,.128.276.439.439,0,0,1-.245.39,1.093,1.093,0,0,1-.571.146,1.937,1.937,0,0,1-1.253-.443l-.262.513a2.128,2.128,0,0,0,1.509.542,1.916,1.916,0,0,0,1.072-.3.957.957,0,0,0,.455-.851.936.936,0,0,0-.114-.464.908.908,0,0,0-.33-.334" transform="translate(-1838.363 -512.818)" fill="#634e39"/>
            </g>
          </g>
        </g>
        <g id="Group_57" data-name="Group 57" transform="translate(80.67 20.292)" opacity="0.6">
          <g id="Group_56" data-name="Group 56">
            <g id="Group_55" data-name="Group 55" clip-path="url(#clip-path-10)">
              <path id="Path_55" data-name="Path 55" d="M2047.066,515.806h-1.842V514.3h-.676v3.776h.676v-1.69h1.842v1.69h.676V514.3h-.676Z" transform="translate(-2044.548 -514.296)" fill="#634e39"/>
            </g>
          </g>
        </g>
        <g id="Group_60" data-name="Group 60" transform="translate(88.963 20.234)" opacity="0.6">
          <g id="Group_59" data-name="Group 59">
            <g id="Group_58" data-name="Group 58" clip-path="url(#clip-path-11)">
              <path id="Path_56" data-name="Path 56" d="M2258.146,513.381a2.065,2.065,0,0,0-2.839,0,1.971,1.971,0,0,0,0,2.768,2.065,2.065,0,0,0,2.839,0,1.97,1.97,0,0,0,0-2.768m-.5,2.328a1.194,1.194,0,0,1-.909.393,1.207,1.207,0,0,1-.918-.393,1.391,1.391,0,0,1,0-1.891,1.212,1.212,0,0,1,.918-.391,1.2,1.2,0,0,1,.909.391,1.4,1.4,0,0,1,0,1.891" transform="translate(-2254.74 -512.816)" fill="#634e39"/>
            </g>
          </g>
        </g>
        <g id="Group_63" data-name="Group 63" transform="translate(98.031 20.292)" opacity="0.6">
          <g id="Group_62" data-name="Group 62">
            <g id="Group_61" data-name="Group 61" clip-path="url(#clip-path-12)">
              <path id="Path_57" data-name="Path 57" d="M2487.373,514.7a1.726,1.726,0,0,0-1.221-.408h-1.591v3.776h.676v-.9h.909a1.736,1.736,0,0,0,1.226-.407,1.43,1.43,0,0,0,0-2.063m-.516,1.644a.912.912,0,0,1-.664.245h-.956v-1.714h.962a.9.9,0,0,1,.658.248.869.869,0,0,1,0,1.221" transform="translate(-2484.562 -514.294)" fill="#634e39"/>
            </g>
          </g>
        </g>
        <path id="Path_58" data-name="Path 58" d="M2375.25.011a8.148,8.148,0,0,1,1.073.436,10.915,10.915,0,0,0-1.117-.417.007.007,0,0,1,0,0l.044-.017" transform="translate(-2281.49 -0.011)" fill="#49331f"/>
        <path id="Path_59" data-name="Path 59" d="M2644.048.019a10.936,10.936,0,0,0-1.118.417A8.233,8.233,0,0,1,2644,0l.044.017a0,0,0,0,1,0,0" transform="translate(-2538.65)" fill="#49331f"/>
        <path id="Path_60" data-name="Path 60" d="M140.927,548.3l-2.641-1.159v3.067l2.641-1.16,2.641,1.16v-3.067Zm-1.956.859v-.969l1.1.484Zm3.912,0-1.1-.485,1.1-.484Z" transform="translate(-132.83 -525.555)" fill="#49331f"/>
        <path id="Path_61" data-name="Path 61" d="M1864.544,181.594h-.825a2.62,2.62,0,0,0-2.616,2.616v4.8a2.619,2.619,0,0,0,2.616,2.615h.825a2.619,2.619,0,0,0,2.616-2.615v-4.8a2.619,2.619,0,0,0-2.616-2.616m.936,7.414a.937.937,0,0,1-.936.936h-.825a.936.936,0,0,1-.936-.936v-4.8a.937.937,0,0,1,.936-.936h.825a.938.938,0,0,1,.936.936Z" transform="translate(-1787.671 -174.429)" fill="#49331f"/>
        <path id="Path_62" data-name="Path 62" d="M8.1,98.561h0m0,0h0m0,0h0m5.865,3.207v-10.7h-.685a5.18,5.18,0,1,1-10.36,0H2.232v10.7H0l2.436,2.352h.436a4.083,4.083,0,0,1,1.681.36,4.134,4.134,0,0,1,1.878,1.7,4.083,4.083,0,0,1,.546,2.044v.342H9.216v-.342a4.083,4.083,0,0,1,.546-2.044,4.134,4.134,0,0,1,1.878-1.7,4.083,4.083,0,0,1,1.681-.36h.436l2.436-2.352Zm-.685-7.956v5.552a5.9,5.9,0,0,0-3.207-2.776,5.9,5.9,0,0,0,3.207-2.776M8.81,96.98h0a5.187,5.187,0,0,1,4.451,4.773H13.1l-.042,0q-.122.005-.243.015l-.057.005-.049.005-.039,0c-.078.009-.155.019-.231.031l-.056.009-.056.01-.112.021-.048.009-.042.009-.048.01-.028.006-.022.005-.052.012q-.151.036-.294.078l-.048.014-.065.02-.062.02-.024.008.026.01h0a6.379,6.379,0,0,0-.653.244l-.081.036-.056.026-.038.018-.047.023-.089.044-.094.048-.022.012-.07.038-.029.016-.057.032q-.1.057-.2.119l-.051.032-.037.023-.059.038-.115.076-.025.017-.047.033-.032.023-.045.032c-.048.035-.1.07-.142.106l-.042.032q-.074.058-.147.118l-.034.028q-.071.06-.141.122l-.046.041q-.1.089-.194.183l-.035.035c-.051.051-.1.1-.149.154l-.072.077-.063.07-.067.078-.033.039q-.057.068-.112.137l-.034.043-.027.035-.03.039-.077.1-.034.048-.03.043L8.1,104.6l-.053-.076-.03-.043-.034-.048-.039-.052-.079-.1-.014-.018-.036-.046q-.053-.067-.109-.133l-.052-.061-.052-.06c-.04-.045-.08-.089-.121-.133l-.038-.04-.059-.061-.077-.077-.052-.051-.042-.04-.085-.079-.07-.063,0,0-.063-.055-.043-.037-.061-.052-.006-.005-.085-.069-.089-.07-.09-.069-.092-.067-.093-.065-.06-.041-.1-.066,0,0-.069-.044-.017-.011-.05-.032-.085-.051-.1-.057-.1-.056-.086-.046-.122-.063-.1-.048-.091-.043-.117-.053a6.363,6.363,0,0,0-.653-.244h0l.025-.01-.023-.008-.075-.024-.075-.023-.068-.02-.016,0-.072-.02-.078-.02-.092-.022-.156-.034q-.133-.028-.272-.05l-.069-.011-.052-.008-.141-.018-.042,0-.045,0-.055,0q-.121-.011-.244-.016l-.043,0h-.16a5.187,5.187,0,0,1,4.45-4.773h0a3.377,3.377,0,0,1,1.428,0M2.917,93.812a5.9,5.9,0,0,0,3.207,2.776,5.9,5.9,0,0,0-3.207,2.776Zm4.348,12.507a4.764,4.764,0,0,0-.335-.633A4.821,4.821,0,0,0,5,103.931a4.753,4.753,0,0,0-2.123-.5h-.16L1.7,102.452H2.759a5.758,5.758,0,0,1,1.257.138,5.645,5.645,0,0,1,.66.189,5.744,5.744,0,0,1,.994.462,5.812,5.812,0,0,1,2,1.953l.036.058q-.145.28-.265.574-.1.241-.175.492m.408,1.563a5.739,5.739,0,0,1,.244-1.35q.079-.256.18-.5.1.245.18.5a5.741,5.741,0,0,1,.244,1.35Zm5.809-4.448h-.16a4.755,4.755,0,0,0-2.123.5,4.828,4.828,0,0,0-2.268,2.391q-.078-.253-.177-.5-.119-.294-.265-.573l.036-.058a5.815,5.815,0,0,1,2-1.952,5.744,5.744,0,0,1,.994-.462,5.662,5.662,0,0,1,.66-.19,5.771,5.771,0,0,1,1.257-.138H14.5ZM8.1,98.561h0m0,0h0m0,0h0m0,0h0" transform="translate(0 -87.472)" fill="#49331f"/>
        <path id="Path_63" data-name="Path 63" d="M106.816,276.2a4.089,4.089,0,0,1,4.042,3.5,5.949,5.949,0,0,0-.63.168,3.437,3.437,0,0,0-6.824,0,5.881,5.881,0,0,0-.63-.168,4.089,4.089,0,0,1,4.041-3.5v.192" transform="translate(-98.719 -265.302)" fill="#49331f"/>
      </g>
    </g>
  </g>
</svg>
